<svg width="74" height="83" viewBox="0 0 74 83" fill="none" xmlns="http://www.w3.org/2000/svg">
<g clip-path="url(#clip0_1_2)">
<path d="M40.8427 56.2188H28.8301V62.8486H41.2912V56.2188H40.8427Z" fill="white" stroke="white" stroke-width="1.5" stroke-miterlimit="10"/>
<path d="M12.0127 56.0762H0V62.7061H12.4611V56.0762H12.0127Z" stroke="white" stroke-width="1.5" stroke-miterlimit="10"/>
<path d="M41.2917 0.792902C41.2917 0.792902 41.2631 0.792902 41.2472 0.792902C41.193 0.810958 41.1378 0.825718 41.0818 0.837101C41.0182 0.837101 40.9514 0.837101 40.8846 0.837101C40.8593 0.83969 40.8338 0.83583 40.8104 0.825886C40.787 0.815942 40.7666 0.800243 40.751 0.780273H40.5252C40.4171 0.84973 40.4171 0.84973 40.3439 0.780273H29.5049C29.4756 0.800641 29.4425 0.815035 29.4076 0.822622C29.3726 0.830209 29.3365 0.830838 29.3013 0.824473C29.2759 0.824473 29.2568 0.796059 29.2345 0.780273H29.0087C28.9292 0.859201 28.8211 0.811844 28.7225 0.84973C28.6807 0.949453 28.6653 1.05815 28.678 1.16544C28.678 1.65795 28.678 2.15045 28.678 2.64296V26.7221C28.6595 26.7339 28.6379 26.7402 28.6159 26.7402C28.5939 26.7402 28.5724 26.7339 28.5539 26.7221V26.8358V26.9999H28.3726H28.1468H20.5137V29.0426H20.6536C21.7876 29.073 22.8648 29.5416 23.6561 30.3485C24.4473 31.1554 24.89 32.237 24.89 33.3631C24.89 34.4891 24.4473 35.5707 23.6561 36.3776C22.8648 37.1846 21.7876 37.6531 20.6536 37.6835H20.5137V38.7475H20.8127C21.867 38.7483 22.9108 38.9554 23.8844 39.3568C24.8581 39.7583 25.7425 40.3463 26.4871 41.0872C27.2317 41.8281 27.822 42.7074 28.2241 43.6748C28.6262 44.6423 28.8323 45.6789 28.8306 46.7255V55.66H41.2917V55.4012C41.2885 55.3866 41.2885 55.3715 41.2917 55.357V54.5487H41.1867V54.5298L41.2917 54.514V0.837101C41.2917 0.837101 41.2981 0.802373 41.2917 0.792902Z" stroke="white" stroke-width="1.5" stroke-miterlimit="10"/>
<path d="M20.5077 37.6926C19.3754 37.6622 18.2997 37.1944 17.5097 36.3886C16.7196 35.5829 16.2776 34.5029 16.2776 33.3785C16.2776 32.2541 16.7196 31.1741 17.5097 30.3683C18.2997 29.5626 19.3754 29.0947 20.5077 29.0643V27.0216H20.3232C20.2157 27.0038 20.1054 27.017 20.0052 27.0595C19.9734 27.0753 19.9352 27.0595 19.9193 27.0122H12.671V0.846185H12.5088C12.4863 0.84858 12.4636 0.845522 12.4425 0.837274C12.4215 0.829026 12.4027 0.815834 12.3879 0.798828H12.2703C12.2385 0.836713 12.2098 0.836713 12.178 0.798828H12.0413C11.9967 0.852499 11.9522 0.824085 11.9077 0.798828H1.1863C1.1577 0.849342 1.1259 0.827242 1.0973 0.798828H0.502501C0.372401 0.847543 0.2288 0.847543 0.0986004 0.798828H0.0573006C0.0573006 0.83987 0.0190993 0.88407 0.0254993 0.921955C0.0444993 1.06402 -0.00320085 1.19978 0.00639915 1.34185C0.0158992 1.48392 0.0254993 1.60389 0.0254993 1.73649C0.0254993 1.86908 0.0064 2.03009 0 2.17532C0 2.23531 0 2.29529 0 2.35528C0 19.5404 0 36.7234 0 53.9043C0 54.0306 1.8999e-07 54.1569 0.0191002 54.2832C0.0191002 54.3179 0.0191002 54.3558 0.0191002 54.3905C0.0191002 54.4252 0.00320019 54.5262 0.0191002 54.5925C0.0382002 54.9083 0.0573002 55.224 0.0795002 55.5239C0.0795002 55.5681 0.0795002 55.6154 0.0795002 55.6628H12.4611V46.7251C12.4619 44.6128 13.3076 42.5873 14.8123 41.0936C16.317 39.6 18.3575 38.7606 20.4854 38.7597H20.5077V37.6926Z" fill="white" stroke="white" stroke-width="1.5" stroke-miterlimit="10"/>
<path d="M4.94563 77.9991V75.0156H6.96841V82.7442H4.94563V79.5871H2.02278V82.7442H0V75.0156H2.02278V77.9991H4.94563Z" fill="white"/>
<path d="M15.0474 75.0156V79.3629C15.0474 80.3574 15.006 81.3424 14.2332 82.0907C13.5971 82.7221 12.5603 82.9494 11.6506 82.9494C10.741 82.9494 9.7201 82.7158 9.06811 82.0844C8.29525 81.3361 8.25391 80.3511 8.25391 79.3566V75.0156H10.2767V79.0851C10.2767 80.0891 10.3498 81.1877 11.6506 81.1877C12.9515 81.1877 13.0405 80.0891 13.0405 79.0851V75.0156H15.0474Z" fill="white"/>
<path d="M17.1736 75.0156H19.1773L20.7676 79.1483L22.4405 75.0156H24.4537L25.6305 82.7442H23.5982L23.0289 78.2958H23.0098L21.1397 82.7442H20.335L18.5476 78.2958H18.5285L17.8924 82.7442H15.8633L17.1736 75.0156Z" fill="white"/>
<path d="M34.7023 78.7377C34.7023 81.2381 32.8958 82.9998 30.396 82.9998C27.8961 82.9998 26.0801 81.2381 26.0801 78.7377C26.0801 76.3983 28.1442 74.7598 30.3864 74.7598C32.6287 74.7598 34.7023 76.4015 34.7023 78.7377ZM28.1951 78.7377C28.1753 79.0365 28.2174 79.3361 28.319 79.6181C28.4205 79.9001 28.5793 80.1583 28.7854 80.3769C28.9916 80.5955 29.2408 80.7697 29.5175 80.8889C29.7943 81.008 30.0927 81.0694 30.3944 81.0694C30.696 81.0694 30.9945 81.008 31.2712 80.8889C31.548 80.7697 31.7972 80.5955 32.0033 80.3769C32.2095 80.1583 32.3683 79.9001 32.4698 79.6181C32.5714 79.3361 32.6135 79.0365 32.5937 78.7377C32.5569 78.1836 32.3092 77.664 31.9008 77.2845C31.4924 76.9049 30.9539 76.6937 30.3944 76.6937C29.8349 76.6937 29.2964 76.9049 28.888 77.2845C28.4796 77.664 28.2319 78.1836 28.1951 78.7377Z" fill="white"/>
<path d="M42.1148 82.7442H39.5959L37.6876 79.7734H37.6654V82.7442H35.6426V75.0156H38.6672C40.2066 75.0156 41.3738 75.7449 41.3738 77.3929C41.3738 78.46 40.7727 79.3819 39.6691 79.5776L42.1148 82.7442ZM37.6622 78.4821H37.8594C38.5177 78.4821 39.262 78.359 39.262 77.516C39.262 76.6731 38.5177 76.5531 37.8594 76.5531H37.6622V78.4821Z" fill="white"/>
<path d="M46.9411 77.0046C46.5668 76.6851 46.0924 76.5044 45.5989 76.4931C45.2268 76.4931 44.7307 76.7078 44.7307 77.1245C44.7307 77.5413 45.2777 77.756 45.6276 77.8633L46.146 78.018C47.2305 78.3337 48.0543 78.8799 48.0543 80.1301C48.0543 80.8973 47.8666 81.6865 47.2496 82.2106C46.6207 82.7012 45.8387 82.9581 45.0392 82.9368C44.0603 82.9357 43.105 82.6383 42.3008 82.0843L43.169 80.4647C43.6495 80.9402 44.2888 81.2244 44.966 81.2635C45.4399 81.2635 45.9456 81.0299 45.9456 80.4868C45.9456 79.9438 45.1505 79.726 44.7179 79.6029C43.4458 79.2461 42.6125 78.9178 42.6125 77.4213C42.6125 75.8428 43.7384 74.8262 45.2968 74.8262C46.1482 74.839 46.9839 75.0556 47.733 75.4576L46.9411 77.0046Z" fill="white"/>
<path d="M52.1254 82.7442H50.1026V76.7173H48.4297V75.0156H53.7983V76.7173H52.1254V82.7442Z" fill="white"/>
<path d="M56.556 76.7173V78.0085H58.8396V79.7102H56.556V81.0425H58.9636V82.7442H54.5332V75.0156H58.9636V76.7173H56.556Z" fill="white"/>
<path d="M65.7791 77.6115C65.5709 77.3417 65.302 77.124 64.9938 76.976C64.6856 76.828 64.3467 76.7537 64.0044 76.7591C63.7235 76.7552 63.4448 76.8087 63.1856 76.9161C62.9264 77.0236 62.6922 77.1827 62.4975 77.3837C62.3028 77.5847 62.1517 77.8232 62.0537 78.0845C61.9556 78.3458 61.9127 78.6243 61.9275 78.9028C61.9135 79.1813 61.9583 79.4597 62.059 79.7201C62.1597 79.9805 62.3142 80.2172 62.5124 80.4148C62.7106 80.6125 62.9483 80.7669 63.2102 80.868C63.472 80.9692 63.7523 81.0149 64.033 81.0022C64.366 80.9978 64.6942 80.9226 64.9955 80.7815C65.2967 80.6405 65.5639 80.4369 65.7791 80.1845V82.5934C65.2059 82.8048 64.6027 82.9252 63.9917 82.9501C62.9096 82.9466 61.8681 82.5411 61.072 81.8136C60.6634 81.4455 60.34 80.9938 60.1242 80.4896C59.9084 79.9854 59.8053 79.4408 59.8221 78.8933C59.8144 77.8339 60.2255 76.8138 60.967 76.0519C61.7483 75.2588 62.8139 74.8048 63.9312 74.7891C64.5674 74.7953 65.1958 74.9284 65.7791 75.1805V77.6115Z" fill="white"/>
<path d="M71.9749 77.9991V75.0156H74.0009V82.7442H71.9749V79.5871H69.0553V82.7442H67.0293V75.0156H69.0553V77.9991H71.9749Z" fill="white"/>
</g>
<defs>
<clipPath id="clip0_1_2">
<rect width="74" height="83" fill="white"/>
</clipPath>
</defs>
</svg>
