<svg width="57" height="57" viewBox="0 0 57 57" fill="none" xmlns="http://www.w3.org/2000/svg">
<g clip-path="url(#clip0_27_630)">
<path d="M28.5 57C44.2401 57 57 44.2401 57 28.5C57 12.7599 44.2401 0 28.5 0C12.7599 0 0 12.7599 0 28.5C0 44.2401 12.7599 57 28.5 57Z" fill="white"/>
<path d="M40.2606 40.0981H33.7134V43.7378H40.505V40.0981H40.2606Z" fill="black"/>
<path d="M24.5471 40.0203H18V43.6599H24.7915V40.0203H24.5471Z" fill="#F6C400"/>
<path d="M40.505 10.0069C40.505 10.0069 40.4894 10.0069 40.4808 10.0069C40.4512 10.0168 40.4211 10.0249 40.3906 10.0312C40.356 10.0312 40.3195 10.0312 40.2831 10.0312C40.2694 10.0326 40.2554 10.0305 40.2427 10.025C40.2299 10.0196 40.2188 10.011 40.2103 10H40.0872C40.0283 10.0381 40.0283 10.0381 39.9885 10H34.081C34.065 10.0112 34.0469 10.0191 34.0279 10.0232C34.0089 10.0274 33.9892 10.0278 33.97 10.0243C33.9561 10.0243 33.9457 10.0087 33.9336 10H33.8105C33.7672 10.0433 33.7083 10.0173 33.6545 10.0381C33.6317 10.0929 33.6234 10.1525 33.6303 10.2114C33.6303 10.4818 33.6303 10.7522 33.6303 11.0226V24.2415C33.6201 24.248 33.6084 24.2514 33.5964 24.2514C33.5845 24.2514 33.5727 24.248 33.5626 24.2415V24.3039V24.394H33.4638H33.3408H29.1805V25.5153H29.2568C29.8749 25.5321 30.4619 25.7893 30.8932 26.2323C31.3244 26.6752 31.5657 27.269 31.5657 27.8872C31.5657 28.5054 31.3244 29.0992 30.8932 29.5421C30.4619 29.9851 29.8749 30.2424 29.2568 30.259H29.1805V30.8431H29.3435C29.9181 30.8436 30.487 30.9573 31.0177 31.1777C31.5483 31.398 32.0303 31.7208 32.4362 32.1276C32.842 32.5343 33.1637 33.017 33.3829 33.5481C33.602 34.0792 33.7143 34.6483 33.7134 35.2228V40.1277H40.505V39.9856C40.5032 39.9776 40.5032 39.9694 40.505 39.9613V39.5177H40.4478V39.5073L40.505 39.4986V10.0312C40.505 10.0312 40.5084 10.0121 40.505 10.0069Z" fill="#4681F3"/>
<path d="M29.1771 30.2639C28.56 30.2471 27.9737 29.9903 27.5431 29.548C27.1125 29.1056 26.8716 28.5127 26.8716 27.8955C26.8716 27.2782 27.1125 26.6853 27.5431 26.243C27.9737 25.8006 28.56 25.5438 29.1771 25.5271V24.4057H29.0766C29.018 24.396 28.9578 24.4032 28.9032 24.4266C28.8859 24.4352 28.8651 24.4266 28.8564 24.4005H24.9059V10.036H24.8175C24.8053 10.0373 24.7928 10.0356 24.7814 10.0311C24.7699 10.0266 24.7597 10.0193 24.7517 10.01H24.6875C24.6702 10.0308 24.6546 10.0308 24.6372 10.01H24.5627C24.5384 10.0395 24.5142 10.0239 24.4899 10.01H18.6466C18.6309 10.0377 18.6136 10.0256 18.598 10.01H18.2739C18.2029 10.0368 18.1247 10.0368 18.0537 10.01H18.0312C18.0312 10.0325 18.0104 10.0568 18.0138 10.0776C18.0243 10.1556 17.9982 10.2301 18.0034 10.3081C18.0086 10.3861 18.0138 10.452 18.0138 10.5248C18.0138 10.5976 18.0034 10.6859 18 10.7657C18 10.7986 18 10.8315 18 10.8645C18 20.2987 18 29.7318 18 39.1637C18 39.233 18 39.3024 18.0104 39.3717C18.0104 39.3907 18.0104 39.4115 18.0104 39.4306C18.0104 39.4497 18.0017 39.5051 18.0104 39.5415C18.0208 39.7149 18.0312 39.8882 18.0433 40.0528C18.0433 40.0771 18.0433 40.1031 18.0433 40.129H24.7915V35.2224C24.792 34.0628 25.2529 32.9509 26.073 32.1309C26.8931 31.311 28.0052 30.8501 29.165 30.8497H29.1771V30.2639Z" fill="#DF2F32"/>
<path d="M20.3336 46.3426V44.9395H21.281V48.5742H20.3336V47.0894H18.9647V48.5742H18.0173V44.9395H18.9647V46.3426H20.3336Z" fill="black"/>
<path d="M25.0646 44.9395V46.984C25.0646 47.4517 25.0452 47.9149 24.6832 48.2668C24.3853 48.5638 23.8997 48.6707 23.4737 48.6707C23.0477 48.6707 22.5695 48.5609 22.2642 48.2639C21.9022 47.912 21.8828 47.4487 21.8828 46.981V44.9395H22.8302V46.8534C22.8302 47.3255 22.8644 47.8422 23.4737 47.8422C24.0829 47.8422 24.1247 47.3255 24.1247 46.8534V44.9395H25.0646Z" fill="black"/>
<path d="M26.0612 44.9395H26.9996L27.7444 46.883L28.528 44.9395H29.4709L30.022 48.5742H29.0702L28.8035 46.4821H28.7946L27.9187 48.5742H27.5418L26.7047 46.4821H26.6958L26.3978 48.5742H25.4474L26.0612 44.9395Z" fill="black"/>
<path d="M34.2704 46.6899C34.2704 47.8659 33.4243 48.6944 32.2535 48.6944C31.0827 48.6944 30.2321 47.8659 30.2321 46.6899C30.2321 45.5897 31.1989 44.8191 32.249 44.8191C33.2992 44.8191 34.2704 45.5912 34.2704 46.6899ZM31.2227 46.6899C31.2134 46.8304 31.2331 46.9714 31.2807 47.104C31.3282 47.2366 31.4026 47.358 31.4991 47.4608C31.5958 47.5637 31.7124 47.6456 31.8421 47.7016C31.9717 47.7576 32.1114 47.7865 32.2527 47.7865C32.394 47.7865 32.5338 47.7576 32.6634 47.7016C32.793 47.6456 32.9097 47.5637 33.0063 47.4608C33.1029 47.358 33.1772 47.2366 33.2248 47.104C33.2723 46.9714 33.2921 46.8304 33.2828 46.6899C33.2656 46.4293 33.1496 46.185 32.9582 46.0065C32.767 45.828 32.5148 45.7286 32.2527 45.7286C31.9907 45.7286 31.7385 45.828 31.5472 46.0065C31.3559 46.185 31.2399 46.4293 31.2227 46.6899Z" fill="black"/>
<path d="M37.7425 48.5742H36.5628L35.6691 47.177H35.6586V48.5742H34.7112V44.9395H36.1278C36.8488 44.9395 37.3955 45.2824 37.3955 46.0575C37.3955 46.5593 37.114 46.9929 36.597 47.085L37.7425 48.5742ZM35.6571 46.5697H35.7494C36.0578 46.5697 36.4064 46.5118 36.4064 46.1154C36.4064 45.7189 36.0578 45.6625 35.7494 45.6625H35.6571V46.5697Z" fill="black"/>
<path d="M40.0024 45.8749C39.8271 45.7246 39.6049 45.6396 39.3738 45.6343C39.1995 45.6343 38.9672 45.7353 38.9672 45.9312C38.9672 46.1272 39.2234 46.2282 39.3872 46.2787L39.63 46.3515C40.138 46.4999 40.5238 46.7568 40.5238 47.3448C40.5238 47.7056 40.4359 48.0768 40.1469 48.3233C39.8524 48.554 39.4862 48.6748 39.1116 48.6647C38.6531 48.6643 38.2058 48.5244 37.8291 48.2638L38.2357 47.5022C38.4607 47.7258 38.7602 47.8594 39.0774 47.8778C39.2993 47.8778 39.5362 47.7679 39.5362 47.5126C39.5362 47.2572 39.1638 47.1547 38.9612 47.0968C38.3653 46.929 37.9751 46.7746 37.9751 46.0708C37.9751 45.3285 38.5024 44.8503 39.2323 44.8503C39.6311 44.8564 40.0225 44.9582 40.3733 45.1473L40.0024 45.8749Z" fill="black"/>
</g>
<defs>
<clipPath id="clip0_27_630">
<rect width="57" height="57" fill="white"/>
</clipPath>
</defs>
</svg>
