<svg width="64" height="64" viewBox="0 0 64 64" fill="none" xmlns="http://www.w3.org/2000/svg">
<g clip-path="url(#clip0_10_518)">
<path d="M32 64C49.6731 64 64 49.6731 64 32C64 14.3269 49.6731 0 32 0C14.3269 0 0 14.3269 0 32C0 49.6731 14.3269 64 32 64Z" fill="white"/>
<path d="M46.644 46.1693H37.7059V51.1381H46.9777V46.1693H46.644Z" fill="black"/>
<path d="M25.192 46.0627H16.254V51.0315H25.5257V46.0627H25.192Z" fill="#F6C400"/>
<path d="M46.9776 5.08881C46.9776 5.08881 46.9563 5.08881 46.9445 5.08881C46.9042 5.10234 46.863 5.1134 46.8214 5.12193C46.7741 5.12193 46.7244 5.12193 46.6747 5.12193C46.6559 5.12387 46.6369 5.12098 46.6195 5.11352C46.6021 5.10608 46.5869 5.09431 46.5753 5.07935H46.4073C46.3268 5.13139 46.3268 5.13139 46.2724 5.07935H38.2076C38.1858 5.09461 38.1611 5.1054 38.1351 5.11108C38.1091 5.11677 38.0822 5.11724 38.056 5.11247C38.0372 5.11247 38.0229 5.09118 38.0064 5.07935H37.8384C37.7792 5.13849 37.6988 5.103 37.6254 5.13139C37.5943 5.20613 37.5829 5.2876 37.5923 5.36801C37.5923 5.73712 37.5923 6.10623 37.5923 6.47535V24.5217C37.5785 24.5306 37.5625 24.5352 37.5461 24.5352C37.5298 24.5352 37.5137 24.5306 37.4999 24.5217V24.6069V24.7299H37.3651H37.1971H31.5176V26.2607H31.6217C32.4655 26.2836 33.2669 26.6347 33.8557 27.2395C34.4444 27.8442 34.7738 28.6549 34.7738 29.4988C34.7738 30.3427 34.4444 31.1534 33.8557 31.7581C33.2669 32.3629 32.4655 32.714 31.6217 32.7368H31.5176V33.5342H31.74C32.5245 33.5348 33.3011 33.69 34.0256 33.9909C34.75 34.2917 35.4081 34.7324 35.9621 35.2877C36.5162 35.8429 36.9553 36.5019 37.2546 37.227C37.5537 37.9521 37.7071 38.729 37.7059 39.5133V46.2094H46.9776V46.0154C46.9752 46.0045 46.9752 45.9932 46.9776 45.9822V45.3766H46.8995V45.3624L46.9776 45.3506V5.12193C46.9776 5.12193 46.9823 5.09591 46.9776 5.08881Z" fill="#4681F3"/>
<path d="M31.5129 32.7435C30.6703 32.7207 29.87 32.3701 29.2821 31.7662C28.6943 31.1623 28.3654 30.3529 28.3654 29.5102C28.3654 28.6675 28.6943 27.8581 29.2821 27.2542C29.87 26.6504 30.6703 26.2997 31.5129 26.2769V24.746H31.3756C31.2956 24.7327 31.2135 24.7426 31.1389 24.7745C31.1153 24.7862 31.0869 24.7745 31.0751 24.7389H25.6819V5.12863H25.5612C25.5445 5.13042 25.5275 5.12813 25.5119 5.12195C25.4962 5.11577 25.4823 5.10588 25.4713 5.09314H25.3838C25.3601 5.12153 25.3388 5.12153 25.3151 5.09314H25.2134C25.1802 5.13336 25.1471 5.11206 25.1139 5.09314H17.1367C17.1153 5.13099 17.0917 5.11443 17.0703 5.09314H16.6279C16.531 5.12965 16.4242 5.12965 16.3273 5.09314H16.2965C16.2965 5.12389 16.2682 5.15702 16.2729 5.18541C16.2871 5.29189 16.2516 5.39364 16.2587 5.50011C16.2658 5.60658 16.2729 5.6965 16.2729 5.79587C16.2729 5.89525 16.2587 6.01592 16.254 6.12476C16.254 6.16971 16.254 6.21467 16.254 6.25963C16.254 19.1392 16.254 32.0171 16.254 44.8935C16.254 44.9881 16.254 45.0828 16.2682 45.1774C16.2682 45.2034 16.2682 45.2318 16.2682 45.2578C16.2682 45.2839 16.2563 45.3596 16.2682 45.4093C16.2824 45.6459 16.2966 45.8825 16.3132 46.1073C16.3132 46.1404 16.3132 46.1759 16.3132 46.2114H25.5257V39.5129C25.5264 37.9298 26.1556 36.4118 27.2751 35.2924C28.3947 34.173 29.913 33.5439 31.4963 33.5432H31.5129V32.7435Z" fill="#DF2F32"/>
<path d="M19.4398 54.6941V52.7786H20.7332V57.7406H19.4398V55.7137H17.5709V57.7406H16.2776V52.7786H17.5709V54.6941H19.4398Z" fill="black"/>
<path d="M25.8986 52.7786V55.5697C25.8986 56.2083 25.8721 56.8407 25.3779 57.3211C24.9713 57.7265 24.3082 57.8724 23.7266 57.8724C23.1451 57.8724 22.4923 57.7225 22.0754 57.317C21.5812 56.8366 21.5548 56.2042 21.5548 55.5657V52.7786H22.8482V55.3914C22.8482 56.036 22.8949 56.7414 23.7266 56.7414C24.5584 56.7414 24.6154 56.036 24.6154 55.3914V52.7786H25.8986Z" fill="black"/>
<path d="M27.2591 52.7786H28.5402L29.557 55.4319L30.6267 52.7786H31.914L32.6664 57.7406H31.3669L31.0029 54.8846H30.9907L29.795 57.7406H29.2804L28.1376 54.8846H28.1254L27.7187 57.7406H26.4212L27.2591 52.7786Z" fill="black"/>
<path d="M38.4662 55.1683C38.4662 56.7737 37.3111 57.9048 35.7127 57.9048C34.1143 57.9048 32.9531 56.7737 32.9531 55.1683C32.9531 53.6663 34.273 52.6143 35.7067 52.6143C37.1403 52.6143 38.4662 53.6684 38.4662 55.1683ZM34.3055 55.1683C34.2928 55.3601 34.3198 55.5526 34.3847 55.7336C34.4496 55.9146 34.5511 56.0804 34.6829 56.2207C34.8148 56.3611 34.9741 56.4729 35.1511 56.5495C35.328 56.6259 35.5188 56.6654 35.7117 56.6654C35.9046 56.6654 36.0954 56.6259 36.2724 56.5495C36.4493 56.4729 36.6086 56.3611 36.7404 56.2207C36.8723 56.0804 36.9738 55.9146 37.0387 55.7336C37.1037 55.5526 37.1306 55.3601 37.1179 55.1683C37.0944 54.8125 36.9361 54.479 36.6749 54.2353C36.4138 53.9916 36.0695 53.8559 35.7117 53.8559C35.354 53.8559 35.0097 53.9916 34.7486 54.2353C34.4874 54.479 34.329 54.8125 34.3055 55.1683Z" fill="black"/>
<path d="M43.2063 57.7406H41.5958L40.3756 55.8333H40.3613V57.7406H39.0679V52.7786H41.0019C41.9862 52.7786 42.7325 53.2468 42.7325 54.3049C42.7325 54.99 42.3482 55.5819 41.6425 55.7076L43.2063 57.7406ZM40.3593 55.0042H40.4854C40.9064 55.0042 41.3822 54.9252 41.3822 54.3839C41.3822 53.8427 40.9064 53.7657 40.4854 53.7657H40.3593V55.0042Z" fill="black"/>
<path d="M46.2915 54.0555C46.0522 53.8504 45.7489 53.7343 45.4333 53.7271C45.1954 53.7271 44.8782 53.865 44.8782 54.1325C44.8782 54.4001 45.2279 54.5379 45.4516 54.6069L45.7831 54.7062C46.4765 54.9089 47.0033 55.2596 47.0033 56.0623C47.0033 56.5548 46.8833 57.0615 46.4887 57.3981C46.0867 57.713 45.5867 57.878 45.0754 57.8642C44.4495 57.8636 43.8387 57.6726 43.3245 57.3169L43.8796 56.2771C44.1868 56.5824 44.5956 56.7648 45.0287 56.79C45.3316 56.79 45.655 56.6399 45.655 56.2913C45.655 55.9427 45.1466 55.8028 44.8701 55.7238C44.0566 55.4947 43.5238 55.2839 43.5238 54.323C43.5238 53.3096 44.2436 52.6569 45.2401 52.6569C45.7846 52.6651 46.3189 52.8041 46.7978 53.0622L46.2915 54.0555Z" fill="black"/>
</g>
<defs>
<clipPath id="clip0_10_518">
<rect width="64" height="64" fill="white"/>
</clipPath>
</defs>
</svg>
